<?xml version="1.0" encoding="utf-8"?>
<!-- Generator: Adobe Illustrator 20.0.0, SVG Export Plug-In . SVG Version: 6.00 Build 0)  -->
<svg version="1.1" id="Layer_1" xmlns="http://www.w3.org/2000/svg" xmlns:xlink="http://www.w3.org/1999/xlink" x="0px" y="0px"
	 viewBox="0 0 64 64" style="enable-background:new 0 0 64 64;" xml:space="preserve">
<style type="text/css">
	.st0{fill:#000000;}
</style>
<path class="st0" d="M43,47.9C43,47.9,43,47.9,43,47.9c-0.9-1.1-2.5-2.9-2.9-3.3c0-0.1-0.1-0.1-0.1-0.1c-0.7-1.3-1.4-2.9-1.5-4.7
	c0-1.5,0.9-3,0.9-3l0,0c0.4-0.8,0.7-1.7,0.7-2.7c0-3.1-2.6-5.8-6.2-6.5V10.8c0-1.5,0.3-2,0.5-2.1c0,0,0.1,0,0.1-0.1c0,0,0,0,0,0l0,0
	c0.4-0.2,0.7-0.7,0.7-1.2V1.5c0-0.8-0.6-1.4-1.4-1.4H30c-0.8,0-1.4,0.6-1.4,1.4v5.9c0,0.5,0.3,1,0.7,1.2l0,0c0,0,0,0,0.1,0
	c0,0,0,0,0,0c0.2,0.1,0.5,0.6,0.5,2.3v16.7c-3.6,0.7-6.2,3.3-6.2,6.5c0,1,0.3,1.9,0.7,2.7l0,0c0,0,1,2.1,0.7,4.2
	c-0.3,1.4-0.9,2.6-1.5,3.7c-0.3,0.3-2.1,2.3-2.8,3.2c0,0,0,0,0,0c-1.6,1.7-2.5,3.7-2.5,5.9c0,5.6,6.1,10.2,13.6,10.2
	c7.5,0,13.6-4.6,13.6-10.2C45.5,51.6,44.6,49.5,43,47.9z M32,48.5c-2.2,0-3.9-1.8-3.9-3.9c0-2.2,1.8-3.9,3.9-3.9
	c2.2,0,3.9,1.8,3.9,3.9C35.9,46.7,34.1,48.5,32,48.5z"/>
</svg>
